<?xml version="1.0" encoding="utf-8"?>
<!-- Generator: Adobe Illustrator 16.0.0, SVG Export Plug-In . SVG Version: 6.00 Build 0)  -->
<!DOCTYPE svg PUBLIC "-//W3C//DTD SVG 1.1//EN" "http://www.w3.org/Graphics/SVG/1.1/DTD/svg11.dtd">
<svg version="1.1" id="Layer_1" xmlns="http://www.w3.org/2000/svg" xmlns:xlink="http://www.w3.org/1999/xlink" x="0px" y="0px"
	 width="360px" height="360px" viewBox="0 0 360 360" enable-background="new 0 0 360 360" xml:space="preserve">
<g id="E6ryJw_1_">
	<g>
		<path fill="#BBBDC0" d="M349.886,179.299c0.574,89.297-71.917,166.233-166.335,166.031
			C92.255,345.134,18.05,271.59,18.066,179.338C18.083,85.174,95.36,11.818,187.021,13.429
			C277.084,15.012,350.273,88.986,349.886,179.299z M336.956,179.363c-0.022-84.195-68.317-152.702-152.039-152.996
			C100.972,26.073,32.101,93.452,31.055,177.388c-1.067,85.67,68.431,156.26,155.38,154.94
			C270.32,331.053,337.105,262.693,336.956,179.363z"/>
		<path fill="#BBBDC0" d="M161.3,145.511c0-4.585,0.054-8.746-0.012-12.905c-0.107-6.739,0.709-13.306,3.513-19.504
			c4.973-10.994,13.89-16.891,25.541-17.834c10.547-0.853,21.196-0.407,31.801-0.522c0.221-0.002,0.442,0.141,0.801,0.262
			c0,9.518,0,19.045,0,28.894c-2.252,0-4.396,0-6.541,0c-4.262,0.001-8.524-0.055-12.784,0.023c-3.697,0.067-6.495,2.375-6.675,5.97
			c-0.252,5.036-0.063,10.094-0.063,15.404c8.808,0,17.527,0,26.705,0c-1.054,11.434-2.08,22.568-3.132,33.987
			c-8.266,0-16.491,0-25.004,0c0,28.375,0,56.463,0,84.687c-11.354,0-22.417,0-33.837,0c0-28.095,0-56.172,0-84.532
			c-5.848,0-11.352,0-17.024,0c0-11.411,0-22.54,0-33.929C150.027,145.511,155.454,145.511,161.3,145.511z"/>
	</g>
</g>
</svg>
