<?xml version="1.0" encoding="utf-8"?>
<!-- Generator: Adobe Illustrator 16.0.0, SVG Export Plug-In . SVG Version: 6.00 Build 0)  -->
<!DOCTYPE svg PUBLIC "-//W3C//DTD SVG 1.1//EN" "http://www.w3.org/Graphics/SVG/1.1/DTD/svg11.dtd">
<svg version="1.1" id="Layer_1" xmlns="http://www.w3.org/2000/svg" xmlns:xlink="http://www.w3.org/1999/xlink" x="0px" y="0px"
	 width="360px" height="360px" viewBox="0 0 360 360" enable-background="new 0 0 360 360" xml:space="preserve">
<g id="lesJ0o_1_">
	<g>
		<path fill="#BBBDC0" d="M14.989,179.586C14.624,87.309,90.58,11.985,183.661,13.43c88.8,1.378,163.271,73.668,163.235,166.342
			c-0.038,91.667-73.99,166.681-167.169,166.037C87.231,345.168,14.633,269.865,14.989,179.586z M181.012,26.421
			C97.36,26.33,29.44,93.746,27.93,176.663c-1.548,84.998,65.875,154.646,150.027,156.142
			c85.764,1.523,154.672-66.451,155.926-150.677C335.196,93.982,264.055,26.307,181.012,26.421z"/>
		<path fill="#BBBDC0" d="M263.986,179.77c0,15.759,0.345,31.529-0.094,47.276c-0.475,17.026-15.297,32.997-32.141,35.435
			c-2.374,0.344-4.794,0.518-7.193,0.521c-29.351,0.035-58.702,0.026-88.053,0.021c-20.93-0.002-38.64-17.59-38.673-38.514
			c-0.047-29.753-0.025-59.506-0.008-89.259c0.012-20.138,15.53-37.056,35.577-38.809c2.077-0.182,4.168-0.274,6.253-0.275
			c28.305-0.018,56.611-0.066,84.917,0.016c10.926,0.032,20.436,3.854,28.158,11.676c7.445,7.539,11.322,16.656,11.362,27.284
			c0.058,14.876,0.015,29.753,0.015,44.629C264.068,179.77,264.027,179.77,263.986,179.77z M180.941,106.137
			c-14.553,0-29.107,0-43.662,0c-16.595,0-29.672,13.016-29.688,29.635c-0.028,29.268-0.031,58.537,0.001,87.804
			c0.018,16.334,12.93,29.629,29.226,29.712c29.428,0.149,58.858,0.146,88.287,0c15.981-0.079,29.064-13.019,29.166-29.013
			c0.188-29.91,0.185-59.822-0.025-89.732c-0.109-15.639-13.514-28.402-29.161-28.406
			C210.37,106.134,195.656,106.137,180.941,106.137z"/>
		<path fill="#BBBDC0" d="M181.15,125.811c29.774,0.009,53.414,23.911,53.399,53.991c-0.015,30.072-23.923,53.761-54.229,53.734
			c-29.292-0.026-53.08-24.214-53.063-53.956C127.274,149.527,151.055,125.801,181.15,125.811z M181.038,136.932
			c-23.623-0.002-42.549,18.915-42.569,42.549c-0.02,23.798,18.968,42.99,42.508,42.964c23.42-0.023,42.428-19.168,42.484-42.785
			C223.518,156.052,204.536,136.934,181.038,136.932z"/>
		<path fill="#BBBDC0" d="M233.586,135.686c-4.912,0.007-8.709-3.8-8.676-8.695c0.031-4.68,3.93-8.576,8.615-8.613
			c4.73-0.037,8.732,4.014,8.695,8.802C242.186,131.911,238.359,135.68,233.586,135.686z"/>
	</g>
</g>
</svg>
