<?xml version="1.0" encoding="utf-8"?>
<!-- Generator: Adobe Illustrator 16.0.0, SVG Export Plug-In . SVG Version: 6.00 Build 0)  -->
<!DOCTYPE svg PUBLIC "-//W3C//DTD SVG 1.1//EN" "http://www.w3.org/Graphics/SVG/1.1/DTD/svg11.dtd">
<svg version="1.1" id="Layer_1" xmlns="http://www.w3.org/2000/svg" xmlns:xlink="http://www.w3.org/1999/xlink" x="0px" y="0px"
	 width="324px" height="332px" viewBox="440.66 142.5 324 332" enable-background="new 440.66 142.5 324 332" xml:space="preserve">
<g>
	<path fill-rule="evenodd" clip-rule="evenodd" d="M673.733,370.013c7.353,7.352,14.557,14.554,21.761,21.757
		c17.067,17.066,34.123,34.147,51.218,51.187c2.139,2.132,3.706,4.415,3.609,7.575c-0.108,3.542-1.724,6.208-4.831,7.781
		c-3.216,1.627-6.463,1.371-9.425-0.745c-1.036-0.741-1.897-1.734-2.807-2.644c-23.216-23.208-46.429-46.419-69.626-69.646
		c-0.831-0.831-1.489-1.833-2.305-2.852c-31.04,25.291-65.795,34.92-104.687,26.953c-29.982-6.142-54.269-21.955-72.483-46.543
		c-37.158-50.159-30.522-118.958,15.306-161.511c44.44-41.267,114.103-42.612,160.127-3.884
		C709.145,239.138,719.626,316.476,673.733,370.013z M478.246,290.646c0.044,57.024,46.295,103.35,103.267,103.435
		c57.04,0.085,103.601-46.423,103.594-103.474c-0.007-57.077-46.656-103.614-103.637-103.386
		C524.313,187.449,478.203,233.649,478.246,290.646z"/>
</g>
</svg>
