<?xml version="1.0" encoding="utf-8"?>
<!-- Generator: Adobe Illustrator 16.0.0, SVG Export Plug-In . SVG Version: 6.00 Build 0)  -->
<!DOCTYPE svg PUBLIC "-//W3C//DTD SVG 1.1//EN" "http://www.w3.org/Graphics/SVG/1.1/DTD/svg11.dtd">
<svg version="1.1" id="Layer_1" xmlns="http://www.w3.org/2000/svg" xmlns:xlink="http://www.w3.org/1999/xlink" x="0px" y="0px"
	 width="360px" height="360px" viewBox="0 0 360 360" enable-background="new 0 0 360 360" xml:space="preserve">
<g>
	<path fill="#FFFFFF" d="M62.774,190.261c-0.112,0.29-0.196,0.406-0.196,0.522c-0.014,11.129-0.048,22.259-0.004,33.388
		c0.008,1.983,1.201,3.31,3.135,3.756c1.003,0.231,2.075,0.23,3.116,0.23c74.375,0.009,148.749,0.009,223.124,0.009
		c0.458,0,0.917,0.008,1.375-0.004c3.341-0.081,4.914-1.66,4.916-4.971c0.006-10.344,0.003-20.688,0.003-31.032
		c0-0.62,0-1.241,0-1.898C219.575,190.261,141.213,190.261,62.774,190.261z M170.694,236.639c0.593,9.473-2.417,17.637-7.945,24.997
		c-3.693,4.916-7.352,9.857-10.994,14.812c-0.352,0.479-0.48,1.121-0.713,1.688c0.531,0.154,1.062,0.444,1.594,0.445
		c18.529,0.023,37.058,0.023,55.587-0.003c0.52-0.001,1.038-0.332,1.557-0.509c-0.221-0.514-0.35-1.1-0.68-1.531
		c-1.863-2.446-3.847-4.803-5.652-7.29c-2.651-3.651-5.268-7.333-7.756-11.099c-4.278-6.475-6.004-13.68-5.662-21.512
		C183.594,236.639,177.274,236.639,170.694,236.639z"/>
	<path fill="#F1F2F2" d="M295.5,42.893c2.167,1.32,2.797,3.213,2.793,5.753c-0.07,43.531-0.05,87.062-0.05,130.593
		c0,0.781,0,1.562,0,2.491c-78.556,0-156.998,0-235.7,0c0-0.778,0-1.539,0-2.297c0-43.597,0.02-87.193-0.05-130.789
		c-0.004-2.54,0.62-4.435,2.792-5.751C142.023,42.893,218.762,42.893,295.5,42.893z M198.602,171.985
		c1.957,1.202,3.697,1.204,5.653,0.009c6.581-4.021,13.195-7.988,19.837-11.909c1.846-1.089,2.621-2.588,2.615-4.673
		c-0.023-9.229-0.036-18.458,0.008-27.688c0.012-2.333-0.898-3.927-2.93-5.115c-5.643-3.299-11.203-6.737-16.838-10.049
		c-1.045-0.614-1.4-1.303-1.395-2.491c0.049-8.247-0.012-16.495,0.051-24.742c0.017-2.142-0.824-3.584-2.629-4.655
		c-6.634-3.936-13.254-7.894-19.85-11.894c-1.886-1.144-3.624-1.126-5.502,0.014c-6.538,3.967-13.092,7.908-19.679,11.794
		c-1.953,1.152-2.798,2.675-2.774,4.969c0.084,8.116-0.003,16.233,0.068,24.349c0.012,1.371-0.453,2.104-1.599,2.777
		c-5.58,3.277-11.088,6.675-16.671,9.947c-2.025,1.187-2.942,2.792-2.907,5.129c0.068,4.581,0.02,9.164,0.02,13.746
		c0,4.647,0.025,9.295-0.012,13.942c-0.017,2.097,0.806,3.571,2.643,4.655c6.642,3.921,13.256,7.888,19.837,11.91
		c1.965,1.2,3.704,1.154,5.654-0.042c5.571-3.418,11.224-6.702,16.797-10.118c1.047-0.641,1.77-0.62,2.805,0.014 M71.023,112.284
		c0,3.73,0,7.461,0,11.191c0,12.238-0.027,24.476,0.012,36.714c0.025,7.868,5.361,13.136,13.206,13.152
		c2.683,0.005,5.367,0.038,8.05-0.009c6.662-0.116,12.274-5.655,12.282-12.325c0.039-32.395,0.031-64.79,0.004-97.185
		c-0.005-5.665-3.696-10.943-9.286-11.829c-4.827-0.765-9.963-0.829-14.782-0.065c-6.103,0.967-9.467,6.145-9.477,12.843
		C71.008,80.609,71.023,96.446,71.023,112.284z M289.75,70.279c-0.018,0-0.033,0-0.051,0c0-2.419,0.104-4.844-0.02-7.256
		c-0.316-6.177-5.307-11.245-11.474-11.552c-3.455-0.172-6.935-0.175-10.392-0.003c-6.448,0.321-11.553,5.787-11.614,12.283
		c-0.041,4.315-0.037,8.632-0.001,12.948c0.051,6.13,4.523,11.491,10.607,12.176c3.807,0.429,7.727,0.518,11.533,0.143
		c6.993-0.688,11.307-5.783,11.404-12.852C289.773,74.203,289.75,72.241,289.75,70.279z M289.869,114.399
		c-0.053-0.002-0.105-0.004-0.158-0.006c0-1.635,0.07-3.273-0.013-4.904c-0.31-6.099-4.867-11.133-10.941-11.635
		c-3.891-0.321-7.853-0.302-11.743,0.025c-5.754,0.483-10.521,5.661-10.779,11.424c-0.152,3.395-0.135,6.806-0.006,10.202
		c0.203,5.37,4.422,10.625,9.746,11.299c4.426,0.561,9.023,0.602,13.453,0.084c5.391-0.63,8.756-4.231,9.988-9.466
		C289.945,119.171,289.74,116.746,289.869,114.399z M289.716,156.519c-0.006,0-0.011,0-0.016,0c0-1.7,0.079-3.404-0.015-5.1
		c-0.342-6.178-5.311-11.245-11.478-11.557c-3.394-0.172-6.806-0.164-10.198-0.021c-5.679,0.24-10.482,4.157-11.396,9.804
		c-0.599,3.703-0.404,7.549-0.399,11.33c0.01,5.731,4.076,10.979,9.73,11.909c3.701,0.609,7.548,0.438,11.328,0.432
		c6.703-0.009,12.097-5.217,12.429-11.895C289.784,159.792,289.716,158.154,289.716,156.519z"/>
	<path fill="#F1F2F2" d="M62.774,190.261c78.439,0,156.801,0,235.469,0c0,0.657,0,1.278,0,1.898c0,10.345,0.003,20.688-0.003,31.032
		c-0.002,3.311-1.575,4.89-4.916,4.971c-0.458,0.012-0.917,0.004-1.375,0.004c-74.375,0-148.749,0-223.124-0.009
		c-1.041,0-2.113,0.001-3.116-0.23c-1.934-0.446-3.127-1.772-3.135-3.756c-0.044-11.129-0.01-22.259,0.004-33.388
		C62.578,190.667,62.662,190.551,62.774,190.261z"/>
	<path fill="#F1F2F2" d="M170.694,236.639c6.58,0,12.899,0,19.335,0c-0.344,7.832,1.383,15.036,5.66,21.512
		c2.488,3.765,5.104,7.445,7.756,11.098c1.808,2.486,3.791,4.844,5.654,7.29c0.33,0.433,0.459,1.019,0.68,1.53
		c-0.52,0.178-1.038,0.509-1.559,0.51c-18.527,0.027-37.057,0.025-55.586,0.003c-0.531-0.001-1.062-0.291-1.594-0.445
		c0.232-0.565,0.361-1.21,0.713-1.688c3.643-4.953,7.301-9.896,10.994-14.812C168.278,254.275,171.287,246.109,170.694,236.639z"/>
	<path fill="#FFFFFF" d="M96.314,112.628c0-16.039,0.001-32.079,0-48.118c0-3.31-1.637-5-4.99-5.102
		c-1.57-0.048-3.146,0.068-4.713-0.022c-5.827-0.336-7.643,1.678-7.621,7.667c0.114,30.573,0.053,61.146,0.053,91.719
		c0,0.524-0.027,1.049,0.006,1.571c0.203,3.119,1.888,4.713,4.979,4.719c2.553,0.004,5.106,0.004,7.66,0
		c3.062-0.006,4.625-1.595,4.625-4.71C96.315,144.445,96.314,128.537,96.314,112.628z"/>
	<path fill="#FFFFFF" d="M264.473,70.307c0,1.959-0.008,3.919,0,5.879c0.014,2.958,1.725,4.742,4.688,4.797
		c2.611,0.048,5.227,0.058,7.838-0.005c2.389-0.057,4.26-1.504,4.354-3.847c0.187-4.617,0.127-9.249,0.002-13.87
		c-0.058-2.078-1.426-3.395-3.484-3.488c-3.243-0.146-6.51-0.215-9.742,0.017c-2.371,0.17-3.627,1.892-3.65,4.247
		C264.455,66.126,264.473,68.217,264.473,70.307z"/>
	<path fill="#FFFFFF" d="M264.473,114.319c0,1.372-0.01,2.745,0.002,4.117c0.021,2.846,1.75,4.568,4.637,4.589
		c2.613,0.019,5.228,0.02,7.842-0.001c2.4-0.019,4.122-1.177,4.367-3.542c0.328-3.153,0.468-6.376,0.186-9.525
		c-0.259-2.888-2.181-4.179-5.134-4.197c-2.287-0.013-4.575-0.019-6.86,0.001c-3.348,0.029-5.031,1.723-5.039,5.028
		C264.471,111.966,264.473,113.143,264.473,114.319z"/>
	<path fill="#FFFFFF" d="M264.473,156.645c0,1.438-0.021,2.877,0.004,4.315c0.043,2.261,1.801,4.064,4.053,4.094
		c2.941,0.039,5.886,0.037,8.826,0c2.154-0.026,3.718-1.094,3.951-3.232c0.344-3.155,0.502-6.365,0.332-9.531
		c-0.137-2.557-1.658-4.134-4.166-4.367c-2.978-0.277-6.029-0.314-8.998,0.009c-2.926,0.319-3.998,1.966-4.002,4.984
		C264.471,154.161,264.473,155.403,264.473,156.645z"/>
	<path fill="#F1F2F2" d="M163.508,161.35c0-6.342-0.011-12.547,0.022-18.751c0.002-0.464,0.177-1.154,0.506-1.356
		c4.012-2.453,8.068-4.834,12.421-7.417c0,3.132,0,5.916,0,8.699c0,2.223-0.267,4.486,0.061,6.66c0.534,3.55-0.82,5.624-3.991,7.118
		c-2.91,1.372-5.596,3.219-8.383,4.854C164.039,161.218,163.905,161.231,163.508,161.35z"/>
	<path fill="#F1F2F2" d="M205.58,161.44c0-6.552-0.018-12.621,0.031-18.689c0.004-0.485,0.318-1.177,0.709-1.418
		c3.818-2.368,7.685-4.66,11.897-7.19c0.054,0.901,0.12,1.495,0.12,2.088c0.01,5.293-0.023,10.586,0.027,15.879
		c0.011,1.163-0.277,1.902-1.355,2.52C213.292,156.758,209.641,159.007,205.58,161.44z"/>
	<path fill="#F1F2F2" d="M142.824,134.328c2.768,1.647,5.428,3.555,8.351,4.886c3.322,1.513,4.387,3.683,4.117,7.287
		c-0.36,4.797-0.089,9.641-0.089,14.856c-1.47-0.842-2.689-1.518-3.886-2.231c-2.58-1.537-5.17-3.056-7.701-4.67
		c-0.519-0.332-1.125-1.043-1.13-1.585c-0.063-6.01-0.017-12.022,0.01-18.033C142.496,134.735,142.623,134.633,142.824,134.328z"/>
	<path fill="#F1F2F2" d="M176.19,119.327c-4.242-2.549-8.093-4.848-11.919-7.189c-0.333-0.204-0.709-0.678-0.711-1.029
		c-0.043-6.239-0.032-12.478-0.032-19.107c4.265,2.564,8.221,4.923,12.143,7.338c0.299,0.184,0.496,0.767,0.498,1.165
		C176.2,106.637,176.19,112.77,176.19,119.327z"/>
	<path fill="#F1F2F2" d="M197.264,161.425c-4.265-2.556-8.177-4.882-12.058-7.26c-0.313-0.193-0.472-0.715-0.601-1.117
		c-0.096-0.298-0.027-0.648-0.027-0.976c-0.001-5.817-0.001-11.634-0.001-17.935c0.993,0.583,1.683,0.98,2.364,1.388
		c3.029,1.811,6.078,3.588,9.062,5.47c0.557,0.351,1.196,1.123,1.204,1.708C197.296,148.787,197.264,154.87,197.264,161.425z"/>
	<path fill="#F1F2F2" d="M184.577,119.324c0-4.292-0.021-8.189,0.007-12.086c0.018-2.54-0.695-5.52,0.391-7.493
		c1.039-1.889,3.973-2.744,6.088-4.03c1.938-1.177,3.895-2.323,6.201-3.697c0,1.208,0,2.08,0,2.953
		c0,5.028-0.033,10.057,0.024,15.085c0.013,1.167-0.283,1.886-1.354,2.5C192.221,114.681,188.576,116.927,184.577,119.324z"/>
	<path fill="#F1F2F2" d="M172.533,126.758c-4.406,2.61-8.405,4.999-12.436,7.333c-0.369,0.214-1.057,0.27-1.404,0.069
		c-4.088-2.366-8.139-4.795-12.521-7.399c3.059-1.864,6.036-3.312,8.576-5.317c3.3-2.603,6.085-2.452,9.324,0.084
		C166.545,123.465,169.433,124.873,172.533,126.758z"/>
	<path fill="#F1F2F2" d="M188.305,126.73c4.381-2.634,8.369-5.047,12.383-7.417c0.334-0.197,0.947-0.302,1.242-0.129
		c4.125,2.42,8.217,4.896,12.607,7.535c-3.557,2.155-6.905,3.999-10.044,6.15c-2.147,1.473-3.83,1.589-6.04,0.027
		C195.341,130.696,191.938,128.907,188.305,126.73z"/>
	<path fill="#F1F2F2" d="M193.312,84.651c-4.273,2.559-8.232,4.949-12.227,7.282c-0.352,0.206-1.03,0.209-1.38,0.005
		c-3.995-2.331-7.955-4.721-12.228-7.277c2.528-1.535,4.826-2.958,7.151-4.333c1.9-1.124,3.834-3.04,5.754-3.042
		c1.918-0.001,3.854,1.914,5.756,3.034C188.434,81.671,190.699,83.07,193.312,84.651z"/>
	<path fill="#F1F2F2" d="M96.314,112.628c0,15.909,0.001,31.817-0.001,47.725c0,3.115-1.563,4.704-4.625,4.71
		c-2.553,0.004-5.106,0.004-7.66,0c-3.092-0.006-4.777-1.6-4.979-4.719c-0.034-0.521-0.006-1.047-0.006-1.571
		c0-30.573,0.061-61.146-0.053-91.719c-0.022-5.99,1.794-8.003,7.621-7.667c1.566,0.09,3.143-0.026,4.713,0.022
		c3.353,0.102,4.989,1.792,4.99,5.102C96.315,80.55,96.314,96.589,96.314,112.628z"/>
	<path fill="#F1F2F2" d="M264.473,70.307c0-2.09-0.018-4.18,0.004-6.271c0.022-2.355,1.278-4.077,3.649-4.247
		c3.233-0.232,6.499-0.163,9.742-0.017c2.06,0.093,3.428,1.41,3.483,3.488c0.125,4.622,0.186,9.253,0,13.87
		c-0.096,2.343-1.968,3.791-4.354,3.847c-2.611,0.062-5.226,0.053-7.838,0.005c-2.964-0.055-4.673-1.838-4.687-4.797
		C264.465,74.226,264.473,72.266,264.473,70.307z"/>
	<path fill="#F1F2F2" d="M264.473,114.319c0-1.176-0.003-2.353,0-3.529c0.006-3.306,1.69-4.999,5.037-5.028
		c2.286-0.02,4.574-0.015,6.861-0.001c2.953,0.018,4.875,1.309,5.134,4.197c0.282,3.148,0.144,6.372-0.185,9.525
		c-0.246,2.365-1.969,3.523-4.368,3.542c-2.614,0.021-5.229,0.02-7.843,0.001c-2.885-0.021-4.615-1.743-4.637-4.589
		C264.463,117.063,264.473,115.691,264.473,114.319z"/>
	<path fill="#F1F2F2" d="M264.473,156.645c0-1.242-0.003-2.484,0-3.727c0.004-3.018,1.076-4.666,4.002-4.984
		c2.969-0.324,6.021-0.286,8.998-0.009c2.508,0.233,4.029,1.811,4.166,4.367c0.17,3.166,0.012,6.375-0.332,9.531
		c-0.234,2.138-1.797,3.206-3.951,3.232c-2.94,0.036-5.885,0.039-8.826,0c-2.252-0.03-4.01-1.833-4.053-4.094
		C264.45,159.522,264.473,158.083,264.473,156.645z"/>
</g>
</svg>
