<?xml version="1.0" encoding="utf-8"?>
<!-- Generator: Adobe Illustrator 16.0.0, SVG Export Plug-In . SVG Version: 6.00 Build 0)  -->
<!DOCTYPE svg PUBLIC "-//W3C//DTD SVG 1.1//EN" "http://www.w3.org/Graphics/SVG/1.1/DTD/svg11.dtd">
<svg version="1.1"
	 id="Layer_1" xmlns:dc="http://purl.org/dc/elements/1.1/" xmlns:cc="http://creativecommons.org/ns#" xmlns:rdf="http://www.w3.org/1999/02/22-rdf-syntax-ns#" xmlns:svg="http://www.w3.org/2000/svg" xmlns:sodipodi="http://sodipodi.sourceforge.net/DTD/sodipodi-0.dtd" xmlns:inkscape="http://www.inkscape.org/namespaces/inkscape"
	 xmlns="http://www.w3.org/2000/svg" xmlns:xlink="http://www.w3.org/1999/xlink" x="0px" y="0px" width="96px" height="58.25px"
	 viewBox="131.25 10 96 58.25" enable-background="new 131.25 10 96 58.25" xml:space="preserve">
<g transform="translate(0,-952.36218)">
	<path d="M162.25,965.162c-0.825,0.078-1.454,0.772-1.45,1.6v8h-14.4c-0.883,0-1.6,0.716-1.6,1.6v32c0,0.884,0.717,1.6,1.6,1.6h40
		c0.883,0.013,1.609-0.693,1.622-1.577s-0.693-1.61-1.577-1.622c-0.016,0-0.03,0-0.045,0H148v-28.8h14.4c0.884,0,1.6-0.716,1.6-1.6
		v-8h22.4v8c0,0.884,0.716,1.6,1.6,1.6h14.4v12.8c-0.013,0.884,0.693,1.61,1.577,1.623c0.884,0.013,1.61-0.693,1.622-1.577
		c0-0.015,0-0.03,0-0.045v-14.4c0-0.884-0.716-1.6-1.6-1.6h-14.4v-8c0-0.883-0.716-1.6-1.6-1.6h-25.6
		C162.35,965.16,162.3,965.16,162.25,965.162z M175.2,979.562c-6.167,0-11.2,5.033-11.2,11.2s5.033,11.2,11.2,11.2
		s11.2-5.034,11.2-11.2S181.367,979.562,175.2,979.562z M175.2,982.762c4.437,0,8,3.563,8,8c0,4.438-3.563,8-8,8
		c-4.438,0-8-3.562-8-8C167.2,986.325,170.763,982.762,175.2,982.762z M203.825,997.137c-0.825,0.091-1.442,0.796-1.425,1.625v8h-8
		c-0.051-0.003-0.101-0.003-0.15,0c-0.884,0.041-1.566,0.791-1.525,1.675c0.042,0.884,0.791,1.566,1.676,1.524h8v8
		c-0.013,0.884,0.693,1.61,1.577,1.623s1.61-0.693,1.622-1.577c0-0.015,0-0.03,0-0.046v-8h8c0.885,0.013,1.61-0.693,1.623-1.577
		s-0.693-1.61-1.578-1.622c-0.014,0-0.029,0-0.045,0h-8v-8c0.02-0.883-0.682-1.615-1.564-1.634
		C203.965,997.126,203.895,997.13,203.825,997.137z"/>
</g>
</svg>
