<?xml version="1.0" encoding="utf-8"?>
<!-- Generator: Adobe Illustrator 16.0.0, SVG Export Plug-In . SVG Version: 6.00 Build 0)  -->
<!DOCTYPE svg PUBLIC "-//W3C//DTD SVG 1.1//EN" "http://www.w3.org/Graphics/SVG/1.1/DTD/svg11.dtd">
<svg version="1.1" id="Layer_1" xmlns="http://www.w3.org/2000/svg" xmlns:xlink="http://www.w3.org/1999/xlink" x="0px" y="0px"
	 width="360px" height="360px" viewBox="0 0 360 360" enable-background="new 0 0 360 360" xml:space="preserve">
<g>
	<path fill-rule="evenodd" clip-rule="evenodd" fill="#F1F2F2" d="M188.286,204.061c6.862,4.487,13.719,6.931,20.966,8.378
		c12.408,2.479,24.869,1.65,37.371,0.829c14.967-0.981,27.302-7.506,38.507-16.958c6.09-5.137,13.023-8.533,21.312-8.093
		c3.748,0.198,6.685,1.87,8.845,4.95c5.661,8.074,5.789,15.458-0.691,23.594c-9.923,12.457-21.175,23.657-35.058,31.725
		c-4.744,2.756-10,5.128-15.325,6.288c-12.687,2.766-25.515,4.967-38.361,6.888c-9.718,1.453-19.539,2.293-29.34,3.09
		c-9.589,0.779-18.796-1.286-27.425-5.353c-12.835-6.049-25.804-11.915-38.156-18.856c-13.715-7.707-27.799-13.84-43.405-16.351
		c-5.267-0.848-5.216-1.162-5.216-6.391c0-20.141,0.032-40.282-0.051-60.422c-0.008-1.997,0.599-2.763,2.49-3.325
		c19.459-5.78,39.308-8.305,59.587-7.385c9.444,0.429,18.315,3.03,26.918,6.885c7.792,3.491,15.514,7.44,23.676,9.719
		c9.001,2.514,18.435,3.603,27.741,4.864c11.69,1.584,23.4,2.787,34.809,6.126c12.072,3.533,13.742,18.783,7.635,26.311
		c-3.446,4.249-8.303,5.162-13.202,5.016c-8.973-0.269-17.923-1.187-26.892-1.668c-10.159-0.546-20.325-0.986-30.494-1.278
		C192.668,202.591,190.782,203.466,188.286,204.061z"/>
	<path fill-rule="evenodd" clip-rule="evenodd" fill="#F1F2F2" d="M139.71,104.628c4.535-7.52,8.754-14.516,13.321-22.088
		c-1.445-1.961-3.411-4.62-5.365-7.286c-3.106-4.236-2.807-6.319,1.366-9.432c4.051-3.021,8.1-6.045,12.172-9.037
		c3.366-2.473,5.833-2.089,8.322,1.254c1.739,2.336,3.517,4.646,5.157,7.05c0.81,1.187,1.492,1.51,2.925,0.886
		c6.795-2.96,13.925-4.639,21.31-5.324c0.603-0.056,1.482-0.992,1.609-1.642c0.642-3.271,1.01-6.593,1.6-9.875
		c0.551-3.058,2.947-4.67,5.976-4.215c5.497,0.827,10.995,1.646,16.494,2.457c3.559,0.525,5.251,2.616,4.822,6.236
		c-0.431,3.644-1.012,7.269-1.452,10.381c7.355,4.419,14.497,8.709,22.085,13.269c2.225-1.627,5.105-3.751,8.005-5.849
		c3.26-2.358,5.77-2.031,8.164,1.136c3.307,4.373,6.588,8.764,9.817,13.193c2.127,2.917,1.712,5.597-1.184,7.807
		c-2.856,2.179-5.779,4.271-8.555,6.313c1.473,5.019,3.02,9.873,4.291,14.799c0.681,2.636,1.034,5.383,1.248,8.102
		c0.125,1.592,0.891,2.009,2.206,2.18c2.799,0.363,5.595,0.75,8.388,1.158c4.04,0.59,5.625,2.65,5.081,6.734
		c-0.7,5.256-1.44,10.508-2.235,15.75c-0.609,4.01-2.772,5.617-6.812,5.094c-2.713-0.352-5.434-0.719-8.105-1.292
		c-1.809-0.388-2.682-0.016-3.492,1.803c-1.701,3.815-3.729,7.495-5.797,11.13c-0.376,0.66-1.682,1.311-2.399,1.167
		c-3.429-0.684-6.783-1.729-10.201-2.478c-3.32-0.728-6.686-1.252-10.478-1.947c8.797-9.284,13.6-20.089,13.861-32.626
		c0.261-12.505-3.927-23.501-12.216-32.89c-12.95-14.666-34.493-19.814-52.813-12.534c-11.187,4.446-19.632,12.045-25.115,22.785
		c-5.466,10.708-6.505,21.991-3.768,33.359c-6.599-0.497-13.033-0.939-19.453-1.535c-0.599-0.056-1.414-1.005-1.594-1.682
		c-0.391-1.462-0.435-3.017-0.634-4.643c-3.631-0.568-7.166-1.125-10.701-1.674c-3.519-0.547-5.221-2.548-4.779-5.991
		c0.719-5.598,1.506-11.191,2.433-16.758c0.663-3.991,2.989-5.411,6.997-4.721C133.576,103.731,136.957,104.204,139.71,104.628z"/>
	<path fill-rule="evenodd" clip-rule="evenodd" fill="#F1F2F2" d="M41.814,142.187c10.565,0,20.975,0,31.544,0
		c0,31.79,0,63.449,0,95.33c-10.458,0-20.926,0-31.544,0C41.814,205.828,41.814,174.158,41.814,142.187z M57.574,231.042
		c3.883-0.003,6.866-2.89,6.925-6.701c0.061-3.885-3.017-7.054-6.881-7.087c-3.875-0.032-6.905,3.073-6.871,7.043
		C50.78,228.182,53.678,231.045,57.574,231.042z"/>
	<path fill-rule="evenodd" clip-rule="evenodd" fill="#F1F2F2" d="M57.574,231.042c-3.896,0.003-6.793-2.86-6.827-6.745
		c-0.034-3.97,2.996-7.075,6.871-7.043c3.864,0.033,6.941,3.202,6.881,7.087C64.439,228.152,61.457,231.039,57.574,231.042z"/>
</g>
</svg>
