<?xml version="1.0" encoding="utf-8"?>
<!-- Generator: Adobe Illustrator 16.0.0, SVG Export Plug-In . SVG Version: 6.00 Build 0)  -->
<!DOCTYPE svg PUBLIC "-//W3C//DTD SVG 1.1//EN" "http://www.w3.org/Graphics/SVG/1.1/DTD/svg11.dtd">
<svg version="1.1"
	 id="Layer_1" xmlns:inkscape="http://www.inkscape.org/namespaces/inkscape" xmlns:rdf="http://www.w3.org/1999/02/22-rdf-syntax-ns#" xmlns:cc="http://creativecommons.org/ns#" xmlns:sodipodi="http://sodipodi.sourceforge.net/DTD/sodipodi-0.dtd" xmlns:dc="http://purl.org/dc/elements/1.1/" xmlns:svg="http://www.w3.org/2000/svg"
	 xmlns="http://www.w3.org/2000/svg" xmlns:xlink="http://www.w3.org/1999/xlink" x="0px" y="0px" width="110px" height="100px"
	 viewBox="126.5 0 110 100" enable-background="new 126.5 0 110 100" xml:space="preserve">
<g transform="translate(0,-1020.3622)">
	<path d="M180,1030.362c-22.091,0-40,17.909-40,40c0,22.092,17.909,40,40,40c22.092,0,40-17.908,40-40
		C220,1048.271,202.092,1030.362,180,1030.362z M180,1052.862c4.129,0,7.5,3.371,7.5,7.5s-3.371,7.5-7.5,7.5
		c-4.129,0-7.5-3.371-7.5-7.5S175.871,1052.862,180,1052.862z M180,1055.006c-2.971,0-5.356,2.385-5.356,5.356
		c0,2.972,2.385,5.361,5.356,5.361c2.971,0,5.356-2.39,5.356-5.361C185.356,1057.391,182.971,1055.006,180,1055.006z M180,1070.362
		c9.57,0,17.5,6.59,17.5,15H195c0-6.824-6.564-12.5-15-12.5c-8.435,0-15,5.676-15,12.5h-2.5
		C162.5,1076.952,170.43,1070.362,180,1070.362z"/>
</g>
</svg>
