<?xml version="1.0" encoding="utf-8"?>
<!-- Generator: Adobe Illustrator 16.0.0, SVG Export Plug-In . SVG Version: 6.00 Build 0)  -->
<!DOCTYPE svg PUBLIC "-//W3C//DTD SVG 1.1//EN" "http://www.w3.org/Graphics/SVG/1.1/DTD/svg11.dtd">
<svg version="1.1" id="Layer_1" xmlns="http://www.w3.org/2000/svg" xmlns:xlink="http://www.w3.org/1999/xlink" x="0px" y="0px"
	 width="360px" height="360px" viewBox="0 0 360 360" enable-background="new 0 0 360 360" xml:space="preserve">
<g>
	<path fill="#F1F2F2" d="M0.514,0.514c120.171,0,240.341,0,360.513,0 M163.097,171.024c0,29.694,0,59.117,0,88.485
		c8.338,0,16.354,0,24.41,0c0-37.827,0-75.485,0-113.247c-45.209,0-90.246,0-135.346,0c0,37.859,0,75.583,0,113.249
		c8.227,0,16.244,0,24.564,0c0-29.585,0-59.004,0-88.487C105.544,171.024,134.058,171.024,163.097,171.024z M215.482,197.555
		c1.375,0,2.388,0,3.4,0c20.137,0,40.271-0.035,60.408,0.045c2.421,0.01,4.23-0.791,4.695-3.033
		c0.716-3.448,1.91-7.209,1.215-10.477c-5.561-26.067-11.524-52.049-17.336-78.063c-0.329-1.472-0.936-2.099-2.565-2.062
		c-5.054,0.114-10.112,0.138-15.165-0.01c-1.794-0.052-2.754,0.564-3.168,2.181c-0.738,2.882-2.734,4.477-5.271,5.826
		c-5.209,2.771-10.244,5.868-15.448,8.649c-1.427,0.762-3.194,1.225-4.812,1.24c-11.48,0.104-22.963,0.03-34.444,0.068
		c-5.69,0.019-9.589,4.001-9.058,9.116c0.421,4.052,4.273,7.153,9.279,7.177c12.681,0.063,25.363,0.015,38.044,0.013
		c3.221,0,6.18-0.687,8.977-2.478c3.49-2.235,7.197-4.132,10.961-6.26c0,14.826,0,29.271,0,43.982c-1.137,0-2.145,0-3.15,0
		c-12.682,0-25.363-0.027-38.044,0.011c-6.996,0.021-12.153,5.205-12.16,12.193c-0.021,20.649-0.011,41.302,0.007,61.951
		c0.002,1.017,0.063,2.065,0.316,3.044c1.521,5.867,7.177,9.739,12.96,8.939c5.998-0.83,10.333-5.729,10.345-11.844
		c0.031-15.68,0.014-31.359,0.016-47.041C215.482,199.792,215.482,198.859,215.482,197.555z M289.913,201.164
		c-22.195,0-43.983,0-65.774,0c0,6.453,0,12.59,0,18.818c28.364,0,56.572,0,84.783,0c0-30.308,0-60.424,0-90.616
		c-6.357,0-12.561,0-19.009,0C289.913,153.243,289.913,176.946,289.913,201.164z M262.275,74.967
		c0.016-13.88-11.055-25.033-24.857-25.044c-13.788-0.011-24.988,11.185-24.98,24.968c0.006,13.699,11.11,24.844,24.776,24.87
		C251.15,99.788,262.259,88.799,262.275,74.967z M176.757,135.133c-0.909,0-1.927,0-2.945,0c-16.79,0-33.58-0.049-50.37,0.058
		c-2.244,0.014-3.083-0.729-3.628-2.811c-2.336-8.92-4.828-17.801-7.289-26.689c-2.298-8.299-4.63-16.589-7.032-25.19
		c-2.827,0.767-5.491,1.49-8.249,2.239c0.115,0.578,0.159,0.901,0.245,1.213c5.28,19.095,10.594,38.18,15.798,57.295
		c0.55,2.022,1.391,2.627,3.486,2.615c17.732-0.094,35.464-0.054,53.196-0.054c8.033,0,8.033,0,7.211-8.079
		C177.172,135.657,177.084,135.591,176.757,135.133z"/>
	<path fill="#F1F2F2" d="M163.097,171.024c-29.039,0-57.553,0-86.373,0c0,29.483,0,58.902,0,88.487c-8.32,0-16.337,0-24.564,0
		c0-37.666,0-75.39,0-113.249c45.1,0,90.137,0,135.346,0c0,37.759,0,75.417,0,113.247c-8.056,0-16.071,0-24.41,0
		C163.097,230.141,163.097,200.718,163.097,171.024z"/>
	<path fill="#F1F2F2" d="M215.482,197.555c0,1.307,0,2.237,0,3.17c-0.002,15.682,0.017,31.361-0.016,47.041
		c-0.012,6.113-4.347,11.014-10.345,11.844c-5.783,0.8-11.438-3.072-12.96-8.939c-0.253-0.979-0.314-2.027-0.316-3.044
		c-0.018-20.649-0.025-41.301-0.007-61.951c0.007-6.989,5.164-12.172,12.16-12.193c12.681-0.038,25.362-0.011,38.044-0.011
		c1.007,0,2.014,0,3.15,0c0-14.711,0-29.156,0-43.982c-3.764,2.128-7.471,4.025-10.961,6.26c-2.797,1.791-5.756,2.477-8.977,2.478
		c-12.681,0.001-25.363,0.05-38.044-0.013c-5.006-0.024-8.858-3.125-9.279-7.177c-0.532-5.115,3.367-9.098,9.058-9.116
		c11.481-0.039,22.964,0.036,34.444-0.068c1.616-0.015,3.385-0.478,4.812-1.24c5.204-2.781,10.239-5.878,15.448-8.649
		c2.537-1.35,4.533-2.944,5.271-5.826c0.414-1.617,1.374-2.233,3.168-2.181c5.053,0.148,10.111,0.124,15.165,0.01
		c1.632-0.037,2.236,0.591,2.565,2.062c5.812,26.014,11.775,51.996,17.336,78.063c0.695,3.268-0.499,7.027-1.215,10.477
		c-0.465,2.242-2.274,3.043-4.695,3.033c-20.136-0.08-40.271-0.045-60.408-0.045C217.87,197.555,216.857,197.555,215.482,197.555z"
		/>
	<path fill="#F1F2F2" d="M289.913,201.164c0-24.218,0-47.921,0-71.797c6.448,0,12.651,0,19.009,0c0,30.191,0,60.309,0,90.615
		c-28.211,0-56.419,0-84.783,0c0-6.229,0-12.364,0-18.817C245.93,201.164,267.718,201.164,289.913,201.164z"/>
	<path fill="#F1F2F2" d="M262.275,74.967c-0.018,13.832-11.125,24.821-25.062,24.794c-13.666-0.026-24.771-11.171-24.777-24.87
		c-0.008-13.784,11.193-24.979,24.981-24.968C251.223,49.934,262.291,61.086,262.275,74.967z"/>
	<path fill="#F1F2F2" d="M176.757,135.133c0.327,0.458,0.415,0.523,0.422,0.598c0.822,8.079,0.822,8.079-7.211,8.079
		c-17.732,0-35.464-0.04-53.196,0.054c-2.095,0.012-2.936-0.593-3.486-2.615c-5.204-19.116-10.519-38.201-15.798-57.295
		c-0.086-0.312-0.129-0.636-0.245-1.213c2.758-0.749,5.422-1.472,8.249-2.239c2.402,8.601,4.734,16.892,7.032,25.19
		c2.461,8.888,4.953,17.769,7.289,26.689c0.545,2.082,1.384,2.825,3.628,2.811c16.79-0.106,33.58-0.058,50.37-0.058
		C174.83,135.133,175.849,135.133,176.757,135.133z"/>
</g>
</svg>
