<?xml version="1.0" encoding="utf-8"?>
<!-- Generator: Adobe Illustrator 16.0.0, SVG Export Plug-In . SVG Version: 6.00 Build 0)  -->
<!DOCTYPE svg PUBLIC "-//W3C//DTD SVG 1.1//EN" "http://www.w3.org/Graphics/SVG/1.1/DTD/svg11.dtd">
<svg version="1.1" id="Layer_1" xmlns="http://www.w3.org/2000/svg" xmlns:xlink="http://www.w3.org/1999/xlink" x="0px" y="0px"
	 width="889.614px" height="169.21px" viewBox="0 0 889.614 169.21" enable-background="new 0 0 889.614 169.21"
	 xml:space="preserve">
<g>
	<path stroke="#FFFFFF" stroke-miterlimit="10" d="M-330.772-23.956c0,0-78.049,70.731-234.146,69.512
		c0,0-68.292-6.098-140.244,39.024c0,0,36.439-226.854,294.439-220.854c0,0,248-2.293,234,220.854c0,0-12.194-43.918-55.138-73.339
		C-258.409-6.944-317.038-8.554-330.772-23.956z"/>
	<path stroke="#FFFFFF" stroke-miterlimit="10" d="M-386.847-134.907c0,0-23.015-125.851,131.985-89.851
		c0,0,120.255,46.875,17.628,147.438"/>
</g>
<text transform="matrix(1 0 0 1 99.6309 -317.3076)" font-family="'Georgia'" font-size="100">The Librarian</text>
<g>
	<path fill-rule="evenodd" clip-rule="evenodd" d="M800.983,86.131c0-26.068-0.003-52.137,0.001-78.206
		c0.002-4.42,0.016-4.435,4.346-4.437c14.045-0.007,28.092,0.064,42.137-0.057c2.893-0.025,3.831,0.843,3.827,3.791
		c-0.075,52.563-0.081,105.126,0.009,157.689c0.005,3.211-1.166,3.881-4.091,3.855c-14.045-0.122-28.091-0.143-42.136,0.014
		c-3.197,0.035-4.176-0.871-4.162-4.125C801.037,138.482,800.983,112.307,800.983,86.131z"/>
	<path fill-rule="evenodd" clip-rule="evenodd" d="M763.893,169.21c-1.812-0.289-2.014-1.853-2.53-3.051
		c-5.727-13.287-11.419-26.59-17.108-39.893c-15.48-36.192-30.914-72.402-46.502-108.548c-1.32-3.062-0.678-4.202,2.229-5.389
		c9.651-3.94,19.244-8.034,28.759-12.292c2.755-1.232,3.897-0.588,5.014,2.034c15.884,37.292,31.847,74.55,47.79,111.816
		c5.315,12.422,10.582,24.864,15.986,37.247c1.004,2.296,0.969,3.52-1.638,4.591c-9.938,4.083-19.786,8.383-29.671,12.594
		C765.441,168.651,764.637,168.927,763.893,169.21z"/>
	<path fill-rule="evenodd" clip-rule="evenodd" d="M889.563,90.282c0,24.684,0.003,49.367-0.003,74.05
		c0,4.364-0.014,4.371-4.402,4.379c-5.107,0.009-10.221-0.154-15.318,0.06c-3.012,0.126-3.764-1.021-3.756-3.863
		c0.078-31.705,0.049-63.41,0.049-95.115c0-18.193,0.074-36.387-0.068-54.58c-0.027-3.244,0.94-4.275,4.158-4.126
		c5.201,0.241,10.43,0.219,15.635,0.006c3.01-0.123,3.766,1.021,3.756,3.864C889.526,40.064,889.562,65.174,889.563,90.282z"/>
</g>
<g>
	<path fill-rule="evenodd" clip-rule="evenodd" d="M149.938,84.583c0,26.708,0.003,53.415-0.002,80.122
		c0,4.394-0.015,4.407-4.374,4.409c-14.045,0.006-28.091-0.068-42.135,0.059c-2.937,0.027-3.801-0.918-3.797-3.821
		c0.071-53.841,0.071-107.681,0-161.521C99.627,0.939,100.47-0.026,103.42,0c14.257,0.128,28.516,0.127,42.773,0
		c2.938-0.026,3.809,0.917,3.799,3.822C149.901,30.743,149.938,57.663,149.938,84.583z"/>
	<path fill-rule="evenodd" clip-rule="evenodd" d="M38.8,84.576c0.001,26.707,0.003,53.414-0.001,80.12
		c-0.001,4.402-0.015,4.416-4.364,4.419c-10.321,0.008-20.643-0.066-30.962,0.048C0.834,169.19-0.003,168.3,0,165.676
		C0.058,111.624,0.057,57.573,0.001,3.521C-0.002,0.922,0.785-0.017,3.45,0.012C13.982,0.128,24.518,0.147,35.05,0
		c2.931-0.041,3.814,0.905,3.804,3.817C38.762,30.737,38.8,57.656,38.8,84.576z"/>
	<path fill-rule="evenodd" clip-rule="evenodd" d="M84.789,90.522c0,24.79,0.003,49.58-0.002,74.371
		c-0.001,4.201-0.02,4.215-4.241,4.22c-7.767,0.011-15.535-0.069-23.3,0.043c-2.503,0.037-3.6-0.593-3.596-3.36
		c0.065-50.325,0.062-100.65,0.007-150.976c-0.003-2.512,0.841-3.34,3.324-3.305c7.978,0.112,15.962,0.17,23.937-0.025
		c3.134-0.078,3.942,1.012,3.93,4.023C84.744,40.516,84.789,65.519,84.789,90.522z"/>
	<path fill-rule="evenodd" clip-rule="evenodd" d="M184.43,84.917c0,26.599,0.002,53.198-0.002,79.797
		c0,4.385-0.015,4.392-4.382,4.4c-4.043,0.008-8.089-0.098-12.128,0.033c-2.383,0.076-3.329-0.871-3.09-3.181
		c0.055-0.526,0.004-1.063,0.004-1.596c0-53.197-0.001-106.396,0.001-159.593c0-4.712,0.009-4.715,4.703-4.722
		c3.724-0.004,7.458,0.167,11.168-0.052c2.983-0.176,3.79,0.968,3.778,3.838c-0.095,22.13-0.052,44.26-0.051,66.391
		C184.431,75.129,184.431,80.023,184.43,84.917z"/>
</g>
<text transform="matrix(1 0 0 1 206.1094 45.7412)" font-family="'Georgia'" font-size="50.2856">The</text>
<text transform="matrix(1 0 0 1 200.1089 149.6055)" font-family="'Courier'" font-size="98.1219">Librarian</text>
</svg>
