<?xml version="1.0" encoding="utf-8"?>
<!-- Generator: Adobe Illustrator 16.0.0, SVG Export Plug-In . SVG Version: 6.00 Build 0)  -->
<!DOCTYPE svg PUBLIC "-//W3C//DTD SVG 1.1//EN" "http://www.w3.org/Graphics/SVG/1.1/DTD/svg11.dtd">
<svg version="1.1" id="Layer_1" xmlns="http://www.w3.org/2000/svg" xmlns:xlink="http://www.w3.org/1999/xlink" x="0px" y="0px"
	 width="466px" height="590px" viewBox="0 0 466 590" enable-background="new 0 0 466 590" xml:space="preserve">
<g>
	<path fill-rule="evenodd" clip-rule="evenodd" fill="#D1D3D4" d="M249.49,408.605c48.158,0,96.312-0.008,144.471,0
		c8.167,0,8.193,0.03,8.199,8.024c0.012,25.949-0.119,51.897,0.104,77.841c0.044,5.345-1.559,7.079-7.004,7.072
		c-97.101-0.143-194.199-0.15-291.302,0.015c-5.933,0.007-7.168-2.152-7.12-7.557c0.223-25.945,0.26-51.892-0.026-77.84
		c-0.066-5.903,1.607-7.712,7.619-7.686C152.784,408.702,201.14,408.605,249.49,408.605z"/>
	<path fill-rule="evenodd" clip-rule="evenodd" fill="#D1D3D4" d="M96.021,340.085c0.535-3.347,3.419-3.723,5.635-4.675
		c24.547-10.579,49.117-21.097,73.693-31.607c66.858-28.593,133.749-57.106,200.52-85.9c5.658-2.438,7.766-1.252,9.958,4.116
		c7.28,17.83,14.84,35.551,22.707,53.127c2.276,5.09,1.087,7.2-3.76,9.263c-68.885,29.34-137.717,58.833-206.556,88.28
		c-22.948,9.818-45.934,19.548-68.809,29.533c-4.239,1.858-6.498,1.791-8.479-3.025c-7.544-18.356-15.487-36.55-23.267-54.81
		C97.051,342.946,96.541,341.462,96.021,340.085z"/>
	<path fill-rule="evenodd" clip-rule="evenodd" fill="#D1D3D4" d="M241.823,572.237c-45.597,0-91.196,0.008-136.793-0.004
		c-8.062,0-8.072-0.026-8.088-8.133c-0.018-9.438,0.283-18.882-0.11-28.302c-0.231-5.561,1.887-6.948,7.137-6.938
		c58.57,0.15,117.14,0.09,175.706,0.09c33.609,0,67.219,0.142,100.825-0.123c5.992-0.048,7.896,1.738,7.62,7.679
		c-0.442,9.61-0.401,19.272-0.006,28.886c0.224,5.558-1.89,6.956-7.141,6.938C334.592,572.169,288.205,572.237,241.823,572.237z"/>
</g>
<text transform="matrix(1 0 0 1 157.0303 191.8857)" fill="#D1D3D4" font-family="'BookmanOldStyle'" font-size="191.6518">T</text>
<text transform="matrix(0.9054 -0.4246 0.4246 0.9054 117.1289 310.0244)" fill="#D1D3D4" font-family="'BookmanOldStyle'" font-size="373.9688">L</text>
</svg>
