<?xml version="1.0" encoding="utf-8"?>
<!-- Generator: Adobe Illustrator 16.0.0, SVG Export Plug-In . SVG Version: 6.00 Build 0)  -->
<!DOCTYPE svg PUBLIC "-//W3C//DTD SVG 1.1//EN" "http://www.w3.org/Graphics/SVG/1.1/DTD/svg11.dtd">
<svg version="1.1" id="Layer_1" xmlns="http://www.w3.org/2000/svg" xmlns:xlink="http://www.w3.org/1999/xlink" x="0px" y="0px"
	 width="360px" height="360px" viewBox="0 0 360 360" enable-background="new 0 0 360 360" xml:space="preserve">
<g id="qQ8zgG_1_">
	<g>
		<path fill-rule="evenodd" clip-rule="evenodd" fill="#BCBEC0" d="M180.56,343.612c-90.09,0.289-167.092-73.131-165.91-168.206
			C15.78,84.502,89.705,11.239,181.449,11.669c91.946,0.43,165.92,75.407,165.077,167.628
			C345.692,270.556,271.16,343.818,180.56,343.612z M333.488,177.827C333.934,95.294,267.227,24.721,180.5,24.731
			C95.878,24.742,27.966,92.701,27.597,177.049c-0.372,84.884,68.534,153.765,153.073,153.634
			C265.111,330.551,333.488,262.157,333.488,177.827z"/>
		<path fill-rule="evenodd" clip-rule="evenodd" fill="#BCBEC0" d="M178.502,151.808c0-3.442-0.156-6.698,0.026-9.935
			c0.871-15.446,12.764-28.784,27.969-31.339c11.823-1.987,22.271,0.864,31.135,9.132c0.563,0.525,1.717,0.824,2.48,0.667
			c7.124-1.468,13.823-4.107,20.565-7.96c-2.622,8.174-7.621,13.968-14.286,18.52c0.112,0.225,0.224,0.45,0.335,0.674
			c6.03-1.654,12.062-3.308,18.166-4.983c-3.687,5.431-8.026,10.371-13.32,14.282c-2.858,2.112-3.523,4.42-3.657,7.818
			c-1.526,38.812-18.996,67.994-53.383,86.458c-12.178,6.54-25.518,9.375-39.329,10.116c-20.109,1.081-38.862-3.365-56.331-13.334
			c-0.688-0.394-1.351-0.831-2.06-1.501c18.293,1.373,34.889-3.053,50.235-14.297c-15.841-1.608-26.479-9.383-32.268-24.018
			c5.041,0,9.771,0,14.502,0c0.038-0.22,0.075-0.438,0.113-0.657c-16.495-5.105-25.66-15.985-26.882-33.822
			c4.998,2.263,9.646,4.063,15.455,4.065c-9.222-6.869-14.225-15.508-14.992-26.356c-0.475-6.72,1.19-13.024,4.747-19.167
			c9.007,10.708,19.557,19.182,31.908,25.343C151.985,147.674,165.047,151.106,178.502,151.808z"/>
	</g>
</g>
</svg>
